<svg id="Layer_1" data-name="Layer 1" xmlns="http://www.w3.org/2000/svg" viewBox="0 0 146 86"><title>Artboard 1</title><path d="M1.26,49.62V28.42h4.4c4.31,0,8.18,1.48,8.18,6.27,0,4.06-2.58,6.89-8.15,6.89H3.94v8ZM5.62,39.2C9,39.2,11,37.47,11,34.72s-2-3.89-4.68-3.89H3.94V39.2Z" fill="#231f20"/><path d="M22,50a7.27,7.27,0,1,1,0-14.53A7.27,7.27,0,1,1,22,50m4.76-7.25A4.92,4.92,0,0,0,22,37.58c-2.83,0-4.82,2.18-4.82,5.26A5,5,0,0,0,22,48c2.86,0,4.82-2.1,4.82-5.21" fill="#231f20"/><path d="M32.09,49.62V35.84h2.46v2.07c.2-.67,1.37-2.41,3-2.41a4.38,4.38,0,0,1,2.35.64l-1,2.32a2.92,2.92,0,0,0-1.71-.62c-1.6,0-2.55,1.82-2.63,3v8.74Z" fill="#231f20"/><polygon points="43.56 49.62 43.56 37.91 41.02 37.91 41.02 35.87 43.56 35.87 43.56 31.08 46.03 31.08 46.03 35.87 49.41 35.87 49.41 37.91 46.03 37.91 46.03 49.62 43.56 49.62" fill="#231f20"/><path d="M51.3,49.62V35.84h2.46v2.07c.2-.67,1.37-2.41,3-2.41a4.38,4.38,0,0,1,2.35.64l-1,2.32a2.92,2.92,0,0,0-1.71-.62c-1.6,0-2.55,1.82-2.63,3v8.74Z" fill="#231f20"/><path d="M71.55,48.16A9.27,9.27,0,0,1,65.48,50c-4.12,0-6-2.38-6-5,0-3.14,3.19-4.45,5.68-4.45a6.18,6.18,0,0,1,4,1.34V40.21c0-1.51-1.15-2.63-3.42-2.63a9.93,9.93,0,0,0-3.84.81l-.81-1.85a11.41,11.41,0,0,1,4.79-1.06c4.51,0,5.66,2.13,5.66,5.32Zm-2.38-4.09a5.62,5.62,0,0,0-3.67-1.4c-2.32,0-3.47,1.21-3.47,2.55s1.23,2.69,3.61,2.69a6.22,6.22,0,0,0,3.53-1Z" fill="#231f20"/><path d="M74.52,31.56a1.68,1.68,0,0,1,1.74-1.74A1.64,1.64,0,0,1,78,31.56a1.66,1.66,0,0,1-1.71,1.71,1.69,1.69,0,0,1-1.74-1.71M75,35.84h2.49V49.62H75Z" fill="#231f20"/><polygon points="82.04 49.62 82.04 37.91 79.49 37.91 79.49 35.87 82.04 35.87 82.04 31.08 84.5 31.08 84.5 35.87 87.89 35.87 87.89 37.91 84.5 37.91 84.5 49.62 82.04 49.62" fill="#231f20"/><polygon points="46.72 8.39 46.75 23.62 44.06 23.62 44.08 1.86 60.1 17.99 60.07 2.42 62.76 2.42 62.73 24.37 46.72 8.39" fill="#5c6872"/><path d="M77.84,22.16A9.27,9.27,0,0,1,71.76,24c-4.12,0-6-2.38-6-5,0-3.14,3.19-4.45,5.68-4.45a6.18,6.18,0,0,1,4,1.34V14.21c0-1.51-1.15-2.63-3.42-2.63a9.94,9.94,0,0,0-3.84.81l-.81-1.85a11.43,11.43,0,0,1,4.79-1.06c4.51,0,5.66,2.13,5.66,5.32Zm-2.38-4.09a5.62,5.62,0,0,0-3.67-1.4c-2.32,0-3.47,1.2-3.47,2.55s1.23,2.69,3.61,2.69a6.22,6.22,0,0,0,3.53-1Z" fill="#5c6872"/><polygon points="82.03 23.62 82.03 11.91 79.48 11.91 79.48 9.87 82.03 9.87 82.03 5.08 84.49 5.08 84.49 9.87 87.88 9.87 87.88 11.91 84.49 11.91 84.49 23.62 82.03 23.62" fill="#5c6872"/><path d="M89.35,5.56a1.68,1.68,0,0,1,1.74-1.74,1.64,1.64,0,0,1,1.71,1.74,1.66,1.66,0,0,1-1.71,1.71,1.69,1.69,0,0,1-1.74-1.71m.48,4.28h2.49V23.62H89.82Z" fill="#5c6872"/><path d="M102.39,24a7.27,7.27,0,1,1,7.36-7.25A7.25,7.25,0,0,1,102.39,24m4.76-7.25a4.92,4.92,0,0,0-4.76-5.18c-2.83,0-4.82,2.18-4.82,5.26A5,5,0,0,0,102.33,22c2.86,0,4.82-2.1,4.82-5.21" fill="#5c6872"/><path d="M121.85,23.62V15.78c0-2.69-.73-4.06-3.22-4.06a5.3,5.3,0,0,0-3.7,1.74V23.62h-2.46V9.84h2.46V11.3a6.74,6.74,0,0,1,4.54-1.82c3.11,0,4.84,1.57,4.84,5.07v9.07Z" fill="#5c6872"/><path d="M138.8,22.16A9.27,9.27,0,0,1,132.72,24c-4.12,0-6-2.38-6-5,0-3.14,3.19-4.45,5.68-4.45a6.18,6.18,0,0,1,4,1.34V14.21c0-1.51-1.15-2.63-3.42-2.63a10,10,0,0,0-3.84.81l-.81-1.85a11.43,11.43,0,0,1,4.79-1.06c4.51,0,5.66,2.13,5.66,5.32Zm-2.38-4.09a5.62,5.62,0,0,0-3.67-1.4c-2.32,0-3.47,1.2-3.47,2.55s1.23,2.69,3.61,2.69a6.23,6.23,0,0,0,3.53-1Z" fill="#5c6872"/><rect x="142.28" y="0.66" width="2.46" height="22.96" fill="#5c6872"/><path d="M55.89,70V67.56h8.48c-.06,7.67-5,11-10.11,11a11,11,0,1,1,0-22,11.53,11.53,0,0,1,8,2.91l-1.4,2a10.07,10.07,0,0,0-6.64-2.46c-5.21,0-8.4,3.81-8.4,8.71a8.54,8.54,0,0,0,8.62,8.48c3.64,0,6.75-2.3,7.08-6.13Z" fill="#5c6872"/><path d="M77.81,76.66a9.27,9.27,0,0,1-6.08,1.85c-4.12,0-6-2.38-6-5,0-3.14,3.19-4.45,5.68-4.45a6.18,6.18,0,0,1,4,1.34V68.71c0-1.51-1.15-2.63-3.42-2.63a9.93,9.93,0,0,0-3.84.81L67.37,65A11.42,11.42,0,0,1,72.16,64c4.51,0,5.66,2.13,5.66,5.32Zm-2.38-4.09a5.62,5.62,0,0,0-3.67-1.4c-2.32,0-3.47,1.21-3.47,2.55s1.23,2.69,3.61,2.69a6.22,6.22,0,0,0,3.53-1Z" fill="#5c6872"/><rect x="81.29" y="55.16" width="2.46" height="22.96" fill="#5c6872"/><rect x="87.18" y="55.16" width="2.46" height="22.96" fill="#5c6872"/><path d="M105.25,76.41c-.79,1-3,2.1-5.8,2.1a6.87,6.87,0,0,1-7.22-7.2C92.23,67,95.12,64,99.32,64s6.36,3.39,6.36,7v.73H94.73a5.19,5.19,0,0,0,.08.84c.5,2.77,2.72,3.89,5.18,3.89a6,6,0,0,0,4.4-1.71Zm-2.07-6.72c-.36-2.1-1.51-3.7-3.92-3.7a4.33,4.33,0,0,0-4.45,3.7Z" fill="#5c6872"/><path d="M108.5,78.12V64.34H111v2.07c.2-.67,1.37-2.41,3-2.41a4.38,4.38,0,0,1,2.35.64l-1,2.32a2.92,2.92,0,0,0-1.71-.62c-1.6,0-2.55,1.82-2.63,3v8.74Z" fill="#5c6872"/><polygon points="118.25 85.34 122.87 76.72 117.16 64.34 119.91 64.34 124.19 74.06 128.87 64.34 131.64 64.34 120.94 85.34 118.25 85.34" fill="#5c6872"/></svg>